<svg xmlns="http://www.w3.org/2000/svg" width="48" height="48" viewBox="0 0 48 48">
  <g id="icon-arrow" transform="translate(-24.25 72.25) rotate(-90)">
    <path id="Path_2820" data-name="Path 2820" d="M48.25,72.25a24,24,0,1,1,24-24A24.027,24.027,0,0,1,48.25,72.25Zm0-46.136A22.136,22.136,0,1,0,70.386,48.25,22.158,22.158,0,0,0,48.25,26.114Z"/>
    <path id="Path_2821" data-name="Path 2821" d="M55.567,50.684H42.209a.932.932,0,0,1,0-1.864H55.567a.932.932,0,1,1,0,1.864Z" transform="translate(-1.157 -1.67)"/>
    <path id="Path_2822" data-name="Path 2822" d="M51.67,56.312a.934.934,0,0,1-.725-1.522l4.46-5.468L51.448,44.2a.932.932,0,1,1,1.474-1.14l4.409,5.709a.93.93,0,0,1-.015,1.158l-4.93,6.04a.9.9,0,0,1-.717.346Z" transform="translate(-1.8 -1.254)"/>
  </g>
</svg>
